<?xml version="1.0" encoding="iso-8859-1"?>
<svg version="1.1" id="Layer_1" xmlns="http://www.w3.org/2000/svg" xmlns:xlink="http://www.w3.org/1999/xlink" x="0px" y="0px"
	 viewBox="0 0 59 77" style="enable-background:new 0 0 512 512;" xml:space="preserve">
    <defs>
    <linearGradient id="grad1" x1="0%" y1="0%" x2="100%" y2="0%">
      <stop offset="0%" style="stop-color:#2ab574;stop-opacity:1"/>
      <stop offset="100%" style="stop-color:#283891;stop-opacity:1"/>
    </linearGradient>
  </defs>
   <g><g><path fill="url(#grad1)" d="M23.538 42.956l6.016 5.098c0 .273-.092 27.127-.092 28.298-.818-.682-6.016-4.845-6.106-4.925-.04-.077-15.94-29.275-15.94-29.275a.388.388 0 0 0-.327-.147c-.141.053-.225.147-.225.284v15.832c-.808-.643-5.842-4.754-6.034-4.9V23.83l6.225 5.248.27.225c.056.097 15.654 28.527 15.654 28.527.057.123.2.17.337.143a.292.292 0 0 0 .222-.274zm33.201-18l-6.562 5.512c-8.422 7.096-20.063 16.873-20.305 17.082l-6.438-5.44A6678.913 6678.913 0 0 1 7.747 28.884l-6.686-5.618c.473-.392 4.55-3.693 4.886-3.942.366.271 23.717 19.183 23.717 19.183a.272.272 0 0 0 .368 0S53.53 19.65 53.887 19.35c.335.253 4.384 3.545 4.85 3.923-.085.085-.807.684-1.993 1.683zm.38.449s1.234-1.005 1.834-1.49v29.042c-.216.168-27.861 22.637-28.795 23.38V48.082l14.25-11.997c6.455-5.435 12.71-10.68 12.71-10.68zm-4.181 11.95a.308.308 0 0 0-.194-.273c-.09-.062-.203-.034-.293.041L36.313 50.136a.278.278 0 0 0-.104.223v12.445c0 .093.053.206.164.247.089.047.215.035.305-.036l16.138-13.044c.074-.064.122-.132.122-.231zM17.332 18.727s-2.606 2.432-5.201 4.839c-2.77-2.251-4.965-4.024-5.712-4.632C14.687 12.246 29.639.107 29.856-.07c.307.257 14.67 11.809 14.67 11.809s4.876 3.957 8.93 7.22c-.741.602-3.017 2.436-5.896 4.72-2.79-2.433-5.66-4.952-5.66-4.952-.071-.042-.118-.07-.205-.07H17.53c-.08 0-.158.028-.2.07zm6.29-5.825c-.087.097-.13.21-.084.327.04.114.152.204.266.204h12.143c.123 0 .244-.09.275-.204.044-.116 0-.23-.096-.327L30.032 8.03c-.106-.091-.246-.091-.368 0z"/></g></g></svg>